<svg width="839" height="158" viewBox="0 0 839 158" fill="none" xmlns="http://www.w3.org/2000/svg">
<path fill-rule="evenodd" clip-rule="evenodd" d="M117.68 30.2256C118.447 30.5742 119.073 31.2007 119.45 31.997L119.795 32.726V62.0244C119.795 94.2756 119.831 92.6213 119.046 96.3576C117.293 104.705 112.959 112.17 106.45 118.054C101.575 122.461 95.1837 125.805 89.0406 127.163C85.288 127.993 86.5457 127.944 67.6378 127.989C55.9069 128.018 50.2861 127.99 49.8646 127.902C48.3689 127.591 47.0262 126.561 46.3659 125.217C45.8611 124.19 45.7873 123.205 45.9111 119.157C46.0931 113.209 46.7596 108.364 48.1714 102.727C51.7596 88.3999 59.8713 73.6521 71.0926 61.0539C80.0547 50.9923 90.6174 42.5318 102.143 36.1833C105.768 34.1868 113.501 30.583 115.133 30.1298C115.879 29.9229 117.116 29.9695 117.68 30.2256Z" fill="#032146"/>
<path fill-rule="evenodd" clip-rule="evenodd" d="M2.1152 30.2256C1.34786 30.5742 0.721859 31.2007 0.345043 31.997L0.000254924 32.726V62.0244C0.000254924 94.2756 -0.035777 92.6213 0.748912 96.3576C2.50185 104.705 6.83571 112.17 13.3451 118.054C18.2201 122.461 24.6112 125.805 30.7543 127.163C34.5069 127.993 33.2492 127.944 52.1571 127.989C63.888 128.018 69.5088 127.99 69.9303 127.902C71.426 127.591 72.7688 126.561 73.429 125.217C73.9338 124.19 74.0077 123.205 73.8838 119.157C73.7018 113.209 73.0353 108.364 71.6235 102.727C68.0353 88.3999 59.9237 73.6521 48.7023 61.0539C39.7402 50.9923 29.1775 42.5318 17.6519 36.1833C14.0272 34.1868 6.29378 30.583 4.66144 30.1298C3.91618 29.9229 2.67921 29.9695 2.1152 30.2256Z" fill="#FE6100" fill-opacity="0.9"/>
<path d="M223.76 107.2H225.04L258.32 30.4H285.84V120H267.28V48.32H266L235.28 120H213.52L182.8 48.32H181.52V120H162.96V30.4H190.48L223.76 107.2ZM318.43 98.88C318.43 106.987 323.337 111.04 333.15 111.04H351.07V86.72H333.15C323.337 86.72 318.43 90.7733 318.43 98.88ZM351.07 77.76C351.07 71.616 349.449 67.0933 346.206 64.192C343.049 61.2907 338.91 59.84 333.79 59.84C329.95 59.84 326.195 60.4373 322.526 61.632C318.857 62.7413 315.571 64.2773 312.67 66.24L308.19 58.56C310.067 57.28 312.115 56.1707 314.334 55.232C316.638 54.2933 318.985 53.5253 321.374 52.928C323.763 52.2453 326.11 51.7333 328.414 51.392C330.803 51.0507 333.022 50.88 335.07 50.88C340.531 50.88 345.353 51.52 349.534 52.8C353.715 54.08 357.257 55.9147 360.158 58.304C363.059 60.6933 365.235 63.552 366.686 66.88C368.222 70.1227 368.99 73.7493 368.99 77.76V120H333.15C321.545 120 312.969 118.251 307.422 114.752C301.961 111.253 299.23 105.963 299.23 98.88C299.23 91.7973 301.961 86.5067 307.422 83.008C312.969 79.5093 321.545 77.76 333.15 77.76H351.07ZM456.61 120H438.69V79.68C438.69 73.536 437.154 69.1413 434.082 66.496C431.01 63.7653 426.573 62.4 420.77 62.4H404.13V120H386.21V30.4H404.13V53.44H420.77C432.973 53.44 441.975 55.6587 447.778 60.096C453.666 64.448 456.61 70.976 456.61 79.68V120ZM488.555 98.88C488.555 106.987 493.462 111.04 503.275 111.04H521.195V86.72H503.275C493.462 86.72 488.555 90.7733 488.555 98.88ZM521.195 77.76C521.195 71.616 519.574 67.0933 516.331 64.192C513.174 61.2907 509.035 59.84 503.915 59.84C500.075 59.84 496.32 60.4373 492.651 61.632C488.982 62.7413 485.696 64.2773 482.795 66.24L478.315 58.56C480.192 57.28 482.24 56.1707 484.459 55.232C486.763 54.2933 489.11 53.5253 491.499 52.928C493.888 52.2453 496.235 51.7333 498.539 51.392C500.928 51.0507 503.147 50.88 505.195 50.88C510.656 50.88 515.478 51.52 519.659 52.8C523.84 54.08 527.382 55.9147 530.283 58.304C533.184 60.6933 535.36 63.552 536.811 66.88C538.347 70.1227 539.115 73.7493 539.115 77.76V120H503.275C491.67 120 483.094 118.251 477.547 114.752C472.086 111.253 469.355 105.963 469.355 98.88C469.355 91.7973 472.086 86.5067 477.547 83.008C483.094 79.5093 491.67 77.76 503.275 77.76H521.195ZM576.175 120C576.175 123.669 575.578 127.04 574.383 130.112C573.188 133.269 571.439 136 569.135 138.304C566.916 140.608 564.143 142.4 560.815 143.68C557.487 144.96 553.647 145.6 549.295 145.6C547.076 145.6 544.73 145.387 542.255 144.96C539.695 144.533 537.135 143.68 534.575 142.4L537.135 134.08C538.415 134.763 539.951 135.36 541.743 135.872C543.45 136.384 545.114 136.64 546.735 136.64C548.356 136.64 549.85 136.341 551.215 135.744C552.666 135.147 553.903 134.165 554.927 132.8C555.951 131.52 556.762 129.813 557.359 127.68C557.956 125.632 558.255 123.072 558.255 120V54.72H576.175V120ZM576.815 37.44C576.815 40 575.919 42.2613 574.127 44.224C572.42 46.1013 570.116 47.04 567.215 47.04C564.314 47.04 561.967 46.1013 560.175 44.224C558.468 42.2613 557.615 40 557.615 37.44C557.615 34.88 558.468 32.6613 560.175 30.784C561.967 28.8213 564.314 27.84 567.215 27.84C570.031 27.84 572.335 28.8213 574.127 30.784C575.919 32.6613 576.815 34.88 576.815 37.44ZM609.43 98.88C609.43 106.987 614.337 111.04 624.15 111.04H642.07V86.72H624.15C614.337 86.72 609.43 90.7733 609.43 98.88ZM642.07 77.76C642.07 71.616 640.449 67.0933 637.206 64.192C634.049 61.2907 629.91 59.84 624.79 59.84C620.95 59.84 617.195 60.4373 613.526 61.632C609.857 62.7413 606.571 64.2773 603.67 66.24L599.19 58.56C601.067 57.28 603.115 56.1707 605.334 55.232C607.638 54.2933 609.985 53.5253 612.374 52.928C614.763 52.2453 617.11 51.7333 619.414 51.392C621.803 51.0507 624.022 50.88 626.07 50.88C631.531 50.88 636.353 51.52 640.534 52.8C644.715 54.08 648.257 55.9147 651.158 58.304C654.059 60.6933 656.235 63.552 657.686 66.88C659.222 70.1227 659.99 73.7493 659.99 77.76V120H624.15C612.545 120 603.969 118.251 598.422 114.752C592.961 111.253 590.23 105.963 590.23 98.88C590.23 91.7973 592.961 86.5067 598.422 83.008C603.969 79.5093 612.545 77.76 624.15 77.76H642.07ZM691.93 98.88C691.93 106.987 696.837 111.04 706.65 111.04H724.57V86.72H706.65C696.837 86.72 691.93 90.7733 691.93 98.88ZM724.57 77.76C724.57 71.616 722.949 67.0933 719.706 64.192C716.549 61.2907 712.41 59.84 707.29 59.84C703.45 59.84 699.695 60.4373 696.026 61.632C692.357 62.7413 689.071 64.2773 686.17 66.24L681.69 58.56C683.567 57.28 685.615 56.1707 687.834 55.232C690.138 54.2933 692.485 53.5253 694.874 52.928C697.263 52.2453 699.61 51.7333 701.914 51.392C704.303 51.0507 706.522 50.88 708.57 50.88C714.031 50.88 718.853 51.52 723.034 52.8C727.215 54.08 730.757 55.9147 733.658 58.304C736.559 60.6933 738.735 63.552 740.186 66.88C741.722 70.1227 742.49 73.7493 742.49 77.76V120H706.65C695.045 120 686.469 118.251 680.922 114.752C675.461 111.253 672.73 105.963 672.73 98.88C672.73 91.7973 675.461 86.5067 680.922 83.008C686.469 79.5093 695.045 77.76 706.65 77.76H724.57ZM830.11 120H812.19V79.68C812.19 73.536 810.654 69.1413 807.582 66.496C804.51 63.7653 800.073 62.4 794.27 62.4H777.63V120H759.71V53.44H794.27C806.473 53.44 815.475 55.6587 821.278 60.096C827.166 64.448 830.11 70.976 830.11 79.68V120Z" fill="#032146"/>
</svg>
